<?xml version="1.0" encoding="utf-8"?>
<!-- Generator: Adobe Illustrator 14.0.0, SVG Export Plug-In . SVG Version: 6.00 Build 43363)  -->
<!DOCTYPE svg PUBLIC "-//W3C//DTD SVG 1.1//EN" "http://www.w3.org/Graphics/SVG/1.1/DTD/svg11.dtd">
<svg version="1.1" id="Layer_1" xmlns="http://www.w3.org/2000/svg" xmlns:xlink="http://www.w3.org/1999/xlink" x="0px" y="0px"
	 width="600px" height="600px" viewBox="0 0 600 600" enable-background="new 0 0 600 600" xml:space="preserve">
<g>
	<ellipse fill="#BF5900" stroke="#FF3F46" cx="149.903" cy="179.096" rx="61.433" ry="90.346"/>
	<path fill="#FFC89B" d="M96.331,159.514c6.458-29.957,27.363-51.898,52.154-51.898c29.942,0,54.214,32.003,54.214,71.479
		c0,39.477-24.272,71.481-54.214,71.481c-29.941,0-54.214-32.004-54.214-71.481C94.271,172.305,94.99,165.736,96.331,159.514"/>
</g>
<g>
	<ellipse fill="#BF5900" stroke="#FF3F46" cx="469.29" cy="177.396" rx="61.433" ry="90.346"/>
	<path fill="#FFC89B" d="M415.719,157.813c6.458-29.957,27.362-51.898,52.154-51.898c29.941,0,54.214,32.003,54.214,71.479
		c0,39.477-24.272,71.481-54.214,71.481s-54.214-32.004-54.214-71.481C413.659,170.605,414.378,164.036,415.719,157.813"/>
</g>
<g>
	<ellipse fill="#FFFFFF" stroke="#000000" cx="243.78" cy="233.101" rx="0" ry="2.551"/>
	<path fill="#BF5900" stroke="#FF3F46" d="M459.087,154.46c0,60.441-66.244,109.438-147.96,109.438S163.168,214.901,163.168,154.46
		c0-60.441,64.713-93.46,146.429-93.46S459.087,94.019,459.087,154.46z"/>
	<ellipse fill="#BF5900" cx="311.127" cy="286.833" rx="187.194" ry="109.436"/>
	<ellipse fill="#BF5900" cx="317.76" cy="216.774" rx="86.225" ry="85.201"/>
	<ellipse fill="#FFC89B" cx="268.684" cy="160.388" rx="77.139" ry="75.263"/>
	<ellipse fill="#FFC89B" cx="350.923" cy="160.388" rx="77.138" ry="75.263"/>
	<path fill="#FFC89B" d="M149.902,292.997c0-44.97,71.497-81.427,159.692-81.427c88.201,0,159.695,36.457,159.695,81.427
		c0,44.97-71.494,81.427-159.695,81.427C221.399,374.424,149.902,337.967,149.902,292.997"/>
</g>
<g>
	<path fill="#FFFFFF" d="M285.76,210.528c-5.8,13.146-14.354,21.459-23.896,21.459c-17.47,0-31.633-27.87-31.633-62.249
		s14.163-62.249,31.633-62.249s31.633,27.87,31.633,62.249C293.497,185.342,290.58,199.604,285.76,210.528"/>
	<ellipse cx="264.384" cy="149.202" rx="18.877" ry="29.894"/>
	<ellipse fill="#FFFFFF" stroke="#FFFFFF" cx="264.384" cy="136.787" rx="6.633" ry="12.415"/>
</g>
<g>
	<path fill="#FFFFFF" d="M374.818,210.528c-5.799,13.146-14.354,21.459-23.896,21.459c-17.47,0-31.633-27.87-31.633-62.249
		s14.163-62.249,31.633-62.249s31.633,27.87,31.633,62.249C382.556,185.342,379.639,199.604,374.818,210.528"/>
	<ellipse cx="353.442" cy="149.202" rx="18.878" ry="29.894"/>
	<ellipse fill="#FFFFFF" stroke="#FFFFFF" cx="353.442" cy="136.787" rx="6.632" ry="12.415"/>
</g>
<path fill="#BF5900" stroke="#FF3F46" d="M431.535,309.689c0,32.795-54.594,59.379-121.939,59.379
	c-67.344,0-121.938-26.584-121.938-59.379c0-32.793,54.594,14.615,121.938,14.615C319.783,324.305,431.535,250.797,431.535,309.689z
	"/>
<ellipse fill="#BF5900" stroke="#FF3F46" cx="-788.855" cy="23.104" rx="0" ry="2"/>
<path fill="#BF5900" stroke="#FF3F46" d="M347.799,260.301c0,14.235-17.104,0-38.203,0c-21.097,0-38.201,14.234-38.201,0
	s17.104-25.776,38.201-25.776C330.694,234.525,347.799,246.066,347.799,260.301z"/>
<ellipse fill="#BF5900" stroke="#FF3F46" cx="-720.608" cy="65.51" rx="0" ry="40.406"/>
</svg>
